<svg width="59" height="51" viewBox="0 0 59 51" fill="none" xmlns="http://www.w3.org/2000/svg">
<path d="M17.9848 18.4873C18.896 17.0139 20.5049 16.1172 22.2372 16.1172H33.525C36.9304 16.1172 40.1016 17.8501 41.9409 20.7161L43.1691 22.6298C43.6937 23.4471 43.6974 24.4944 43.1786 25.3154L38.9895 31.9453L47.3597 45.27C47.9872 46.2689 47.2692 47.5679 46.0895 47.5679H38.9895L30.4371 34.0143C29.6407 32.7521 29.6475 31.1429 30.4546 29.8875L30.9821 29.0671C32.3977 26.8654 30.8168 23.9696 28.1992 23.9696C25.9432 23.9696 23.8426 25.1191 22.6264 27.0192L19.4254 32.0199C17.2951 35.3479 19.6852 39.7155 23.6366 39.7155H24.2375C27.8363 39.7155 31.1576 41.6492 32.9341 44.779L34.5172 47.5679H17.9423C10.1092 47.5679 5.31728 38.9701 9.43739 32.308L17.9848 18.4873Z" fill="#02C58D"/>
<path d="M44.7477 34.7385C43.6275 33.0036 43.6011 30.8517 44.6793 29.1605C45.2246 28.3052 46.5538 28.3422 47.105 29.2281L57.7034 46.2627C58.093 46.8888 57.6428 47.6598 56.8877 47.6598C54.5375 47.6598 52.3243 46.4721 51.078 44.5421L44.7477 34.7385Z" fill="#0A7A6A"/>
<path d="M26.7064 4.0744C27.7991 2.29444 30.5401 2.3364 31.695 4.15078L33.9884 7.75376C34.054 7.85678 34.0887 7.97413 34.0887 8.09274C34.0887 8.20735 34.0563 8.31886 33.9949 8.41563L32.9858 10.0045C31.5803 12.2177 29.0382 13.5393 26.2755 13.4933L25.2942 13.4769C23.4289 13.4458 22.2345 11.5081 23.1463 9.99239L26.7064 4.0744Z" fill="#0A7A6A"/>
</svg>
